<svg xmlns="http://www.w3.org/2000/svg" xmlns:xlink="http://www.w3.org/1999/xlink" width="346" height="118" viewBox="0 0 346 118">
    <defs>
        <path id="b" d="M293.22 95.58L18.31 85.86.81 3.24h329.67z"/>
        <filter id="a" width="112.1%" height="154.1%" x="-3.8%" y="-13.5%" filterUnits="objectBoundingBox">
            <feOffset dx="15" dy="25" in="SourceAlpha" result="shadowOffsetOuter1"/>
            <feColorMatrix in="shadowOffsetOuter1" values="0 0 0 0 0 0 0 0 0 0 0 0 0 0 0 0 0 0 0.15 0"/>
        </filter>
    </defs>
    <g fill="none" fill-rule="evenodd">
        <g transform="rotate(-1 165.645 49.41)">
            <use fill="#000" filter="url(#a)" xlink:href="#b"/>
            <use fill="#E44870" xlink:href="#b"/>
        </g>
        <path fill="#A33C34" d="M81.361 66.387c-7.168 0-12.798-3.159-13.365-8.95-.04-.567.486-1.134 1.053-1.134h5.468c.931 0 1.134.202 1.62 1.053.567 1.053 2.227 2.025 5.062 2.025 3.038 0 4.01-1.013 4.01-1.944 0-1.337-1.58-2.147-5.387-3.443-5.022-1.66-11.623-4.09-11.623-10.61 0-6.035 5.143-9.801 12.352-9.801 7.371 0 12.515 3.847 12.92 9.517.04.567-.486 1.134-1.053 1.134h-5.63c-.769 0-1.134-.365-1.377-1.094-.486-1.336-2.025-2.551-4.698-2.551-2.754 0-3.847 1.093-3.847 2.146 0 1.256 1.458 1.904 5.224 3.2 4.374 1.539 11.826 4.131 11.826 11.056 0 6.156-5.346 9.396-12.555 9.396zm25.677-24.34H98.98a.986.986 0 0 1-.972-.972v-5.913c0-.526.445-.972.972-.972h25.839c.526 0 .972.446.972.972v5.913a.986.986 0 0 1-.972.972h-8.06a.812.812 0 0 0-.81.81v21.951a.986.986 0 0 1-.972.972h-6.156a.986.986 0 0 1-.972-.972V42.857a.812.812 0 0 0-.81-.81zm17.172 22.842l12.07-29.808c.202-.527.769-.891 1.336-.891h6.075c.567 0 1.134.364 1.336.891l12.029 29.808a.65.65 0 0 1-.608.891h-6.885a1.408 1.408 0 0 1-1.296-.891l-1.134-2.957a1.185 1.185 0 0 0-1.093-.769h-10.814c-.486 0-.931.324-1.093.77l-1.134 2.956a1.408 1.408 0 0 1-1.296.891h-6.885a.65.65 0 0 1-.608-.891zm13.77-11.057h5.306c.405 0 .648-.405.526-.769l-2.875-7.736c-.081-.283-.486-.283-.567 0l-2.916 7.736c-.122.364.121.77.526.77zm24.3 10.976V35.162c0-.526.446-.972.972-.972h14.459c8.1 0 11.826 5.265 11.826 11.542 0 4.172-1.742 8.06-5.508 10.125-.405.203-.486.689-.243 1.053l5.791 8.06c.243.364 0 .81-.405.81h-7.735c-.608 0-1.175-.324-1.539-.81l-4.941-7.007c-.284-.405-.81-.648-1.296-.648h-2.511a.812.812 0 0 0-.81.81v6.683a.986.986 0 0 1-.972.972h-6.116a.986.986 0 0 1-.972-.972zm19.44-18.995c0-2.43-1.215-4.252-4.455-4.252h-6.115a.812.812 0 0 0-.81.81v6.804c0 .445.364.81.81.81h6.115c3.24 0 4.455-1.985 4.455-4.172zm21.101-3.766h-8.06a.986.986 0 0 1-.972-.972v-5.913c0-.526.446-.972.972-.972h25.84c.526 0 .971.446.971.972v5.913a.986.986 0 0 1-.972.972h-8.059a.812.812 0 0 0-.81.81v21.951a.986.986 0 0 1-.972.972h-6.156a.986.986 0 0 1-.972-.972V42.857a.812.812 0 0 0-.81-.81z"/>
        <path fill="#FFF" d="M76.501 61.527c-7.168 0-12.798-3.159-13.365-8.95-.04-.567.486-1.134 1.053-1.134h5.468c.931 0 1.134.202 1.62 1.053.567 1.053 2.227 2.025 5.062 2.025 3.038 0 4.01-1.013 4.01-1.944 0-1.337-1.58-2.147-5.387-3.443-5.022-1.66-11.623-4.09-11.623-10.61 0-6.035 5.143-9.801 12.352-9.801 7.371 0 12.515 3.847 12.92 9.517.04.567-.486 1.134-1.053 1.134h-5.63c-.769 0-1.134-.365-1.377-1.094-.486-1.336-2.025-2.551-4.698-2.551-2.754 0-3.847 1.093-3.847 2.146 0 1.256 1.458 1.904 5.224 3.2 4.374 1.539 11.826 4.131 11.826 11.056 0 6.156-5.346 9.396-12.555 9.396zm25.677-24.34H94.12a.986.986 0 0 1-.972-.972v-5.913c0-.526.445-.972.972-.972h25.839c.526 0 .972.446.972.972v5.913a.986.986 0 0 1-.972.972h-8.06a.812.812 0 0 0-.81.81v21.951a.986.986 0 0 1-.972.972h-6.156a.986.986 0 0 1-.972-.972V37.997a.812.812 0 0 0-.81-.81zm17.172 22.842l12.07-29.808c.202-.526.769-.891 1.336-.891h6.075c.567 0 1.134.365 1.336.891l12.029 29.808a.65.65 0 0 1-.608.891h-6.885a1.408 1.408 0 0 1-1.296-.891l-1.134-2.957a1.185 1.185 0 0 0-1.093-.769h-10.814c-.486 0-.931.324-1.093.77l-1.134 2.956a1.408 1.408 0 0 1-1.296.891h-6.885a.65.65 0 0 1-.608-.891zm13.77-11.057h5.306c.405 0 .648-.405.526-.769l-2.875-7.736c-.081-.283-.486-.283-.567 0l-2.916 7.736c-.122.364.121.77.526.77zm24.3 10.976V30.302c0-.526.446-.972.972-.972h14.459c8.1 0 11.826 5.265 11.826 11.542 0 4.172-1.742 8.06-5.508 10.125-.405.203-.486.689-.243 1.053l5.791 8.06c.243.364 0 .81-.405.81h-7.735c-.608 0-1.175-.324-1.539-.81l-4.941-7.007c-.284-.405-.81-.648-1.296-.648h-2.511a.812.812 0 0 0-.81.81v6.683a.986.986 0 0 1-.972.972h-6.116a.986.986 0 0 1-.972-.972zm19.44-18.995c0-2.43-1.215-4.252-4.455-4.252h-6.115a.812.812 0 0 0-.81.81v6.804c0 .445.364.81.81.81h6.115c3.24 0 4.455-1.985 4.455-4.172zm21.101-3.766h-8.06a.986.986 0 0 1-.972-.972v-5.913c0-.526.446-.972.972-.972h25.84c.526 0 .971.446.971.972v5.913a.986.986 0 0 1-.972.972h-8.059a.812.812 0 0 0-.81.81v21.951a.986.986 0 0 1-.972.972h-6.156a.986.986 0 0 1-.972-.972V37.997a.812.812 0 0 0-.81-.81z"/>
        <path fill="#A33C34" fill-rule="nonzero" d="M234.695 40.507v26.43a1.62 1.62 0 0 0 2.393 1.423l27.446-14.909a1.62 1.62 0 0 0-.146-2.917l-27.446-11.52a1.62 1.62 0 0 0-2.247 1.493z"/>
        <path fill="#FFAE28" fill-rule="nonzero" d="M232.265 34.837v26.43a1.62 1.62 0 0 0 2.393 1.423l27.446-14.909a1.62 1.62 0 0 0-.146-2.917l-27.446-11.52a1.62 1.62 0 0 0-2.247 1.493z"/>
    </g>
</svg>
