<?xml version="1.0" encoding="utf-8"?>
<!-- Generator: Adobe Illustrator 22.1.0, SVG Export Plug-In . SVG Version: 6.00 Build 0)  -->
<svg version="1.1" id="Capa_1" xmlns="http://www.w3.org/2000/svg" xmlns:xlink="http://www.w3.org/1999/xlink" x="0px" y="0px"
	 viewBox="0 0 27 27" style="enable-background:new 0 0 27 27;" xml:space="preserve">
<style type="text/css">
	.st0{fill:#FFFFFF;}
</style>
<g transform="translate(-1 -1)">
	<path class="st0" d="M2.1,2.1L2.1,2.1C3.3,1,5.2,1,6.4,2.1l20.5,20.5c1.2,1.2,1.2,3.1,0,4.2l0,0c-1.2,1.2-3.1,1.2-4.2,0L2.1,6.4
		C1,5.2,1,3.3,2.1,2.1z"/>
	<path class="st0" d="M26.9,2.1L26.9,2.1c1.2,1.2,1.2,3.1,0,4.2L6.4,26.9c-1.2,1.2-3.1,1.2-4.2,0l0,0c-1.2-1.2-1.2-3.1,0-4.2
		L22.6,2.1C23.8,1,25.7,1,26.9,2.1z"/>
</g>
</svg>
