<svg xmlns="http://www.w3.org/2000/svg" width="70" height="82" viewBox="0 0 70 82">
    <g fill="#FFF" fill-rule="nonzero">
        <path d="M41.3 72.6c0 2.8-2.3 5-5 5h-5.5c-2.8 0-5-2.3-5-5v-4.1c-1.3-.1-2.7-.3-3.9-.5v4.6c0 4.9 4 8.9 8.9 8.9h5.5c4.9 0 8.9-4 8.9-8.9v-4.7c-1.3.2-2.6.4-3.9.5v4.2zM22.8 11.2c0 5.9 4.8 10.7 10.7 10.7 5.9 0 10.7-4.8 10.7-10.7C44.2 5.3 39.4.5 33.5.5c-5.9 0-10.7 4.8-10.7 10.7zm10.7-6.8c3.7 0 6.8 3 6.8 6.8 0 3.7-3 6.8-6.8 6.8-3.7 0-6.8-3-6.8-6.8.1-3.8 3.1-6.8 6.8-6.8zM70 57.8c-.6-3.2-1.7-6.4-3.3-9.7-.3-.6-.7-1.3-1.1-2-.1-.2-.3-.3-.5-.3s-.4 0-.5.2c-2.6 2.4-5.6 4.8-8.9 7.2-1.4 1-2.9 2-4.5 3.1-.2.2-.3.4-.3.7.1.3.3.5.6.5.7.1 1.5.1 2.2.2.8.1 1.5.1 2.3.2-.4.2-.8.4-1.3.5-1.2.4-2.4.9-3.7 1.2-1.8.5-3.7.9-5.7 1.2v-4c2.1-1.7 3.4-4.3 3.4-7V32.1c0-4.9-4-8.9-8.9-8.9H27.4c-4.9 0-8.9 4-8.9 8.9v7C7.3 41.3 0 46 0 51.7c0 .9.2 1.8.6 2.7 2.9 6.6 16 11.2 32.7 11.2 13.2 0 24.2-2.9 29.6-7.4 2.2.1 4.3.2 6.5.3h.1c.1 0 .3-.1.4-.2.1-.1.2-.3.1-.5zm-48.2 3.1c-3.7-.6-7.1-1.4-10-2.5-3.9-1.5-6.5-3.3-7.5-5.1-.1-.2-.2-.5-.3-.7-.1-.3-.1-.5-.1-.8 0-2.3 3-4.8 7.9-6.7 2-.8 4.2-1.4 6.6-1.9v6.6c0 2.7 1.3 5.3 3.4 7v4.1zm22.9-11.1c0 1.7-.9 3.4-2.5 4.3-.6.4-1 1-1 1.7v5.6c-2.6.3-5.3.4-8 .4-2.6 0-5.1-.1-7.5-.4v-5.7c0-.7-.4-1.3-1-1.7-1.5-.9-2.5-2.6-2.5-4.3V32.1c0-2.8 2.3-5 5-5h12.3c2.8 0 5 2.3 5 5v17.7h.2z"/>
    </g>
</svg>
