<svg xmlns="http://www.w3.org/2000/svg" xmlns:xlink="http://www.w3.org/1999/xlink" width="376" height="118" viewBox="0 0 376 118">
    <defs>
        <path id="b" d="M323.218 96.842L18.313 86.598.813 3.978l359.665.524z"/>
        <filter id="a" width="111.1%" height="153.8%" x="-3.5%" y="-13.5%" filterUnits="objectBoundingBox">
            <feOffset dx="15" dy="25" in="SourceAlpha" result="shadowOffsetOuter1"/>
            <feColorMatrix in="shadowOffsetOuter1" values="0 0 0 0 0 0 0 0 0 0 0 0 0 0 0 0 0 0 0.15 0"/>
        </filter>
    </defs>
    <g fill="none" fill-rule="evenodd">
        <g transform="rotate(-1 123.35 49.91)">
            <use fill="#000" filter="url(#a)" xlink:href="#b"/>
            <use fill="#E44870" xlink:href="#b"/>
        </g>
        <path fill="#A33C34" d="M73.88 65.78H52.616a.986.986 0 0 1-.972-.972V35.162c0-.526.445-.972.972-.972h6.115c.527 0 .972.446.972.972v21.991c0 .446.365.81.81.81H73.88c.527 0 .972.446.972.972v5.873a.986.986 0 0 1-.972.972zm29.645 0H81.21a.986.986 0 0 1-.972-.972V35.162c0-.526.445-.972.972-.972h22.315c.527 0 .972.446.972.972v5.913a.986.986 0 0 1-.972.972H89.148a.812.812 0 0 0-.81.81v2.916c0 .445.364.81.81.81h11.502c.526 0 .972.445.972.972v5.386a.986.986 0 0 1-.972.972H89.148a.812.812 0 0 0-.81.81v2.43c0 .446.364.81.81.81h14.377c.527 0 .972.446.972.972v5.873a.986.986 0 0 1-.972.972zm14.418-23.733h-8.06a.986.986 0 0 1-.971-.972v-5.913c0-.526.445-.972.972-.972h25.839c.526 0 .972.446.972.972v5.913a.986.986 0 0 1-.972.972h-8.06a.812.812 0 0 0-.81.81v21.951a.986.986 0 0 1-.972.972h-6.156a.986.986 0 0 1-.972-.972V42.857a.812.812 0 0 0-.81-.81zm36.248 24.34c-7.169 0-12.798-3.159-13.365-8.95-.04-.567.486-1.134 1.053-1.134h5.467c.932 0 1.134.202 1.62 1.053.567 1.053 2.228 2.025 5.063 2.025 3.037 0 4.01-1.013 4.01-1.944 0-1.337-1.58-2.147-5.387-3.443-5.022-1.66-11.624-4.09-11.624-10.61 0-6.035 5.144-9.801 12.353-9.801 7.37 0 12.514 3.847 12.92 9.517.04.567-.487 1.134-1.054 1.134h-5.63c-.769 0-1.133-.365-1.376-1.094-.486-1.336-2.025-2.551-4.698-2.551-2.754 0-3.848 1.093-3.848 2.146 0 1.256 1.458 1.904 5.225 3.2 4.374 1.539 11.826 4.131 11.826 11.056 0 6.156-5.346 9.396-12.555 9.396zm54.027-12.312h-6.278a.986.986 0 0 1-.972-.972v-4.779c0-.526.446-.972.972-.972h13.284c.527 0 .972.446.972.972v16.484a.986.986 0 0 1-.972.972h-4.414a.986.986 0 0 1-.972-.972v-1.175c0-.243-.324-.364-.486-.162-1.66 1.904-4.577 2.916-7.493 2.916-9.153 0-16.767-7.37-16.767-16.402s7.614-16.402 16.767-16.402c5.063 0 9.68 2.308 12.758 5.831.324.405.243 1.013-.162 1.296l-4.982 3.362c-.486.324-1.053.283-1.498-.162a8.664 8.664 0 0 0-6.116-2.511 8.539 8.539 0 0 0-8.586 8.586 8.539 8.539 0 0 0 8.586 8.586c2.673 0 5.022-1.296 6.52-3.28.122-.163.244-.487.244-.689v-.122a.436.436 0 0 0-.405-.405zm29.767 12.312c-9.112 0-16.767-7.37-16.767-16.402s7.655-16.402 16.767-16.402c9.234 0 16.767 7.37 16.767 16.402 0 9.031-7.533 16.402-16.767 16.402zm0-24.988a8.565 8.565 0 0 0-8.586 8.586 8.565 8.565 0 0 0 8.586 8.586c4.86 0 8.586-3.807 8.586-8.586s-3.726-8.586-8.586-8.586zm23.895 11.907l-1.66-18.144a.894.894 0 0 1 .89-.972h7.088c.527 0 .932.446.891.972l-1.66 18.144c-.04.526-.527.972-1.053.972h-3.443c-.526 0-1.012-.446-1.053-.972zm2.754 13.162c-2.794 0-5.103-2.308-5.103-5.103 0-2.794 2.309-5.103 5.103-5.103 2.795 0 5.103 2.309 5.103 5.103 0 2.795-2.308 5.103-5.103 5.103z"/>
        <path fill="#FFF" d="M69.02 60.92H47.756a.986.986 0 0 1-.972-.972V30.302c0-.526.445-.972.972-.972h6.115c.527 0 .972.446.972.972v21.991c0 .446.365.81.81.81H69.02c.527 0 .972.446.972.972v5.873a.986.986 0 0 1-.972.972zm29.645 0H76.35a.986.986 0 0 1-.972-.972V30.302c0-.526.445-.972.972-.972h22.315c.527 0 .972.446.972.972v5.913a.986.986 0 0 1-.972.972H84.288a.812.812 0 0 0-.81.81v2.916c0 .445.364.81.81.81H95.79c.526 0 .972.445.972.972v5.386a.986.986 0 0 1-.972.972H84.288a.812.812 0 0 0-.81.81v2.43c0 .446.364.81.81.81h14.377c.527 0 .972.446.972.972v5.873a.986.986 0 0 1-.972.972zm14.418-23.733h-8.06a.986.986 0 0 1-.971-.972v-5.913c0-.526.445-.972.972-.972h25.839c.526 0 .972.446.972.972v5.913a.986.986 0 0 1-.972.972h-8.06a.812.812 0 0 0-.81.81v21.951a.986.986 0 0 1-.972.972h-6.156a.986.986 0 0 1-.972-.972V37.997a.812.812 0 0 0-.81-.81zm36.248 24.34c-7.169 0-12.798-3.159-13.365-8.95-.04-.567.486-1.134 1.053-1.134h5.467c.932 0 1.134.202 1.62 1.053.567 1.053 2.228 2.025 5.063 2.025 3.037 0 4.01-1.013 4.01-1.944 0-1.337-1.58-2.147-5.387-3.443-5.022-1.66-11.624-4.09-11.624-10.61 0-6.035 5.144-9.801 12.353-9.801 7.37 0 12.514 3.847 12.92 9.517.04.567-.487 1.134-1.054 1.134h-5.63c-.769 0-1.133-.365-1.376-1.094-.486-1.336-2.025-2.551-4.698-2.551-2.754 0-3.848 1.093-3.848 2.146 0 1.256 1.458 1.904 5.225 3.2 4.374 1.539 11.826 4.131 11.826 11.056 0 6.156-5.346 9.396-12.555 9.396zm54.027-12.312h-6.278a.986.986 0 0 1-.972-.972v-4.779c0-.526.446-.972.972-.972h13.284c.527 0 .972.446.972.972v16.484a.986.986 0 0 1-.972.972h-4.414a.986.986 0 0 1-.972-.972v-1.175c0-.243-.324-.364-.486-.162-1.66 1.904-4.577 2.916-7.493 2.916-9.153 0-16.767-7.37-16.767-16.402S187.846 28.723 197 28.723c5.063 0 9.68 2.308 12.758 5.831.324.405.243 1.013-.162 1.296l-4.982 3.362c-.486.324-1.053.283-1.498-.162a8.664 8.664 0 0 0-6.116-2.511 8.539 8.539 0 0 0-8.586 8.586A8.539 8.539 0 0 0 197 53.711c2.673 0 5.022-1.296 6.52-3.28.122-.163.244-.487.244-.689v-.122a.436.436 0 0 0-.405-.405zm29.767 12.312c-9.112 0-16.767-7.37-16.767-16.402s7.655-16.402 16.767-16.402c9.234 0 16.767 7.37 16.767 16.402 0 9.031-7.533 16.402-16.767 16.402zm0-24.988a8.565 8.565 0 0 0-8.586 8.586 8.565 8.565 0 0 0 8.586 8.586c4.86 0 8.586-3.807 8.586-8.586s-3.726-8.586-8.586-8.586zm23.895 11.907l-1.66-18.144a.894.894 0 0 1 .89-.972h7.088c.527 0 .932.446.891.972l-1.66 18.144c-.04.526-.527.972-1.053.972h-3.443c-.526 0-1.012-.446-1.053-.972zm2.754 13.162c-2.794 0-5.103-2.308-5.103-5.103 0-2.794 2.309-5.103 5.103-5.103 2.795 0 5.103 2.309 5.103 5.103 0 2.795-2.308 5.103-5.103 5.103z"/>
        <path fill="#A33C34" fill-rule="nonzero" d="M288.695 40.507v26.43a1.62 1.62 0 0 0 2.393 1.423l27.446-14.909a1.62 1.62 0 0 0-.146-2.917l-27.446-11.52a1.62 1.62 0 0 0-2.247 1.493z"/>
        <path fill="#FFAE28" fill-rule="nonzero" d="M286.265 34.837v26.43a1.62 1.62 0 0 0 2.393 1.423l27.446-14.909a1.62 1.62 0 0 0-.146-2.917l-27.446-11.52a1.62 1.62 0 0 0-2.247 1.493z"/>
    </g>
</svg>
