<?xml version="1.0" encoding="utf-8"?>
<!-- Generator: Adobe Illustrator 22.1.0, SVG Export Plug-In . SVG Version: 6.00 Build 0)  -->
<svg version="1.1" id="Layer_1" xmlns="http://www.w3.org/2000/svg" xmlns:xlink="http://www.w3.org/1999/xlink" x="0px" y="0px"
	 viewBox="0 0 308 29" style="enable-background:new 0 0 308 29;" xml:space="preserve">
<style type="text/css">
	.st0{enable-background:new    ;}
	.st1{fill:#212B51;}
	.st2{filter:url(#Adobe_OpacityMaskFilter);}
	.st3{fill:#FFFFFF;}
	.st4{mask:url(#b_1_);fill:#E32786;}
</style>
<g>
	<g class="st0">
		<path class="st1" d="M6.8,23.8C6.9,24,7,24.1,7,24.3c0.1-0.2,0.1-0.3,0.2-0.5c0.1-0.2,0.1-0.3,0.2-0.5l4.4-7.9
			c0.1-0.1,0.2-0.2,0.2-0.3c0.1,0,0.2,0,0.4,0h1.3V28h-1.5v-9.5c0-0.1,0-0.3,0-0.4c0-0.1,0-0.3,0-0.4l-4.4,8.1
			c-0.1,0.3-0.4,0.4-0.6,0.4H6.9c-0.3,0-0.5-0.1-0.6-0.4l-4.5-8.1c0,0.2,0,0.3,0,0.5c0,0.1,0,0.3,0,0.4V28H0.3V15.1h1.3
			c0.2,0,0.3,0,0.4,0c0.1,0,0.2,0.1,0.2,0.3l4.5,7.9C6.7,23.5,6.8,23.6,6.8,23.8z"/>
		<path class="st1" d="M23.4,28h-0.7c-0.2,0-0.3,0-0.4-0.1c-0.1,0-0.2-0.1-0.2-0.3l-0.2-0.8c-0.2,0.2-0.5,0.4-0.7,0.6
			s-0.5,0.3-0.7,0.4c-0.3,0.1-0.5,0.2-0.8,0.3c-0.3,0.1-0.6,0.1-0.9,0.1c-0.4,0-0.7,0-1-0.1c-0.3-0.1-0.6-0.2-0.8-0.4
			c-0.2-0.2-0.4-0.5-0.5-0.8c-0.1-0.3-0.2-0.7-0.2-1.1c0-0.4,0.1-0.7,0.3-1s0.5-0.6,1-0.9s1-0.5,1.7-0.6c0.7-0.2,1.6-0.2,2.6-0.2
			v-0.7c0-0.7-0.2-1.3-0.5-1.6C21.1,20.2,20.6,20,20,20c-0.4,0-0.7,0-1,0.1c-0.3,0.1-0.5,0.2-0.7,0.3c-0.2,0.1-0.4,0.2-0.5,0.3
			c-0.1,0.1-0.3,0.1-0.4,0.1c-0.1,0-0.2,0-0.3-0.1s-0.1-0.1-0.2-0.2l-0.3-0.5c0.5-0.5,1-0.8,1.6-1.1s1.2-0.4,1.9-0.4
			c0.5,0,1,0.1,1.4,0.3s0.7,0.4,1,0.7s0.5,0.7,0.6,1.1c0.1,0.4,0.2,0.9,0.2,1.4V28z M19.2,27c0.3,0,0.5,0,0.8-0.1s0.5-0.1,0.7-0.2
			c0.2-0.1,0.4-0.2,0.6-0.4c0.2-0.1,0.4-0.3,0.6-0.5v-1.9c-0.7,0-1.4,0-1.9,0.1c-0.5,0.1-0.9,0.2-1.3,0.4c-0.3,0.2-0.6,0.3-0.7,0.5
			s-0.2,0.4-0.2,0.7c0,0.2,0,0.5,0.1,0.6s0.2,0.3,0.3,0.4c0.1,0.1,0.3,0.2,0.5,0.2C18.8,27,19,27,19.2,27z"/>
		<path class="st1" d="M32.4,28c-0.2,0-0.4-0.1-0.4-0.3l-0.1-1.1c-0.4,0.5-0.8,0.9-1.3,1.1c-0.5,0.3-1.1,0.4-1.7,0.4
			c-0.5,0-1-0.1-1.4-0.3c-0.4-0.2-0.8-0.5-1.1-0.9c-0.3-0.4-0.5-0.9-0.7-1.5s-0.2-1.3-0.2-2c0-0.7,0.1-1.3,0.3-1.9s0.4-1.1,0.8-1.5
			c0.3-0.4,0.8-0.8,1.2-1c0.5-0.2,1-0.4,1.7-0.4c0.6,0,1,0.1,1.4,0.3c0.4,0.2,0.8,0.5,1.1,0.8v-5.1h1.6V28H32.4z M29.3,26.8
			c0.5,0,1-0.1,1.4-0.4c0.4-0.2,0.8-0.6,1.1-1V21c-0.3-0.4-0.6-0.7-1-0.8C30.4,20.1,30,20,29.6,20c-0.9,0-1.5,0.3-2,0.9
			c-0.5,0.6-0.7,1.5-0.7,2.6c0,0.6,0.1,1.1,0.2,1.5c0.1,0.4,0.3,0.8,0.5,1c0.2,0.3,0.4,0.5,0.7,0.6C28.6,26.8,28.9,26.8,29.3,26.8z"
			/>
		<path class="st1" d="M39.7,18.7c0.5,0,1.1,0.1,1.5,0.3c0.5,0.2,0.9,0.4,1.2,0.8s0.6,0.8,0.8,1.3c0.2,0.5,0.3,1.1,0.3,1.7
			c0,0.3,0,0.4-0.1,0.5c-0.1,0.1-0.2,0.1-0.3,0.1h-6.1c0,0.6,0.1,1.1,0.2,1.5s0.3,0.8,0.6,1.1s0.6,0.5,0.9,0.6
			c0.3,0.1,0.7,0.2,1.2,0.2c0.4,0,0.7,0,1-0.1s0.5-0.2,0.8-0.3c0.2-0.1,0.4-0.2,0.5-0.3c0.1-0.1,0.3-0.1,0.4-0.1
			c0.1,0,0.2,0.1,0.3,0.2l0.4,0.6c-0.2,0.2-0.4,0.4-0.7,0.6s-0.6,0.3-0.9,0.4c-0.3,0.1-0.6,0.2-1,0.3c-0.3,0.1-0.7,0.1-1,0.1
			c-0.6,0-1.2-0.1-1.7-0.3c-0.5-0.2-1-0.5-1.4-0.9c-0.4-0.4-0.7-0.9-0.9-1.5c-0.2-0.6-0.3-1.3-0.3-2.1c0-0.6,0.1-1.2,0.3-1.8
			c0.2-0.6,0.5-1,0.8-1.4c0.4-0.4,0.8-0.7,1.3-1C38.5,18.9,39.1,18.7,39.7,18.7z M39.8,19.9c-0.8,0-1.4,0.2-1.8,0.7
			c-0.4,0.4-0.7,1.1-0.8,1.9h5c0-0.4-0.1-0.7-0.2-1c-0.1-0.3-0.3-0.6-0.4-0.8c-0.2-0.2-0.4-0.4-0.7-0.5C40.5,20,40.1,19.9,39.8,19.9
			z"/>
		<path class="st1" d="M48.1,18.9h1.3c0.1,0,0.2,0,0.3,0.1c0.1,0.1,0.1,0.1,0.2,0.2l1.7,5.9c0,0.2,0.1,0.4,0.1,0.6
			c0,0.2,0.1,0.4,0.1,0.6c0-0.2,0.1-0.4,0.2-0.6c0.1-0.2,0.1-0.4,0.2-0.6l1.9-5.9c0-0.1,0.1-0.2,0.2-0.2c0.1-0.1,0.2-0.1,0.3-0.1
			h0.7c0.1,0,0.2,0,0.3,0.1c0.1,0.1,0.1,0.1,0.2,0.2l1.9,5.9c0.1,0.2,0.1,0.4,0.2,0.6s0.1,0.4,0.1,0.6c0-0.2,0.1-0.4,0.1-0.6
			c0-0.2,0.1-0.4,0.2-0.6l1.8-5.9c0-0.1,0.1-0.2,0.2-0.2c0.1-0.1,0.2-0.1,0.3-0.1h1.2l-3,9.1h-1.3c-0.2,0-0.3-0.1-0.3-0.3l-2-6.2
			c0-0.1-0.1-0.3-0.1-0.4c0-0.1-0.1-0.3-0.1-0.4c0,0.1-0.1,0.3-0.1,0.4c0,0.1-0.1,0.3-0.1,0.4l-2,6.2c-0.1,0.2-0.2,0.3-0.4,0.3h-1.2
			L48.1,18.9z"/>
		<path class="st1" d="M65.3,16c0,0.2,0,0.3-0.1,0.4c-0.1,0.1-0.1,0.3-0.3,0.4c-0.1,0.1-0.2,0.2-0.4,0.2c-0.1,0.1-0.3,0.1-0.4,0.1
			c-0.2,0-0.3,0-0.4-0.1c-0.1-0.1-0.3-0.1-0.4-0.2c-0.1-0.1-0.2-0.2-0.2-0.4c-0.1-0.1-0.1-0.3-0.1-0.4c0-0.2,0-0.3,0.1-0.4
			c0.1-0.1,0.1-0.3,0.2-0.4c0.1-0.1,0.2-0.2,0.4-0.2c0.1-0.1,0.3-0.1,0.4-0.1c0.2,0,0.3,0,0.4,0.1c0.1,0.1,0.3,0.1,0.4,0.2
			c0.1,0.1,0.2,0.2,0.3,0.4C65.3,15.7,65.3,15.9,65.3,16z M65,18.9V28h-1.6v-9.1H65z"/>
		<path class="st1" d="M70.7,28.1c-0.7,0-1.3-0.2-1.7-0.6s-0.6-1-0.6-1.7v-5.6h-1.1c-0.1,0-0.2,0-0.2-0.1C67.1,20.1,67,20,67,19.9
			v-0.6l1.5-0.2l0.4-2.8c0-0.1,0.1-0.2,0.1-0.2c0.1-0.1,0.1-0.1,0.3-0.1h0.8v3.1h2.6v1.2h-2.6v5.5c0,0.4,0.1,0.7,0.3,0.9
			c0.2,0.2,0.4,0.3,0.7,0.3c0.2,0,0.3,0,0.4-0.1s0.2-0.1,0.3-0.1c0.1-0.1,0.2-0.1,0.2-0.1s0.1-0.1,0.2-0.1c0.1,0,0.2,0.1,0.2,0.2
			l0.5,0.8c-0.3,0.3-0.6,0.5-1,0.6C71.5,28.1,71.1,28.1,70.7,28.1z"/>
		<path class="st1" d="M74.8,28V14.7h1.6v5.4c0.4-0.4,0.8-0.7,1.3-1s1-0.4,1.6-0.4c0.5,0,0.9,0.1,1.3,0.2s0.7,0.4,1,0.7
			c0.3,0.3,0.4,0.7,0.6,1.1c0.1,0.4,0.2,0.9,0.2,1.4V28h-1.6v-5.8c0-0.7-0.2-1.2-0.5-1.6S79.5,20,78.8,20c-0.5,0-0.9,0.1-1.3,0.3
			c-0.4,0.2-0.8,0.5-1.1,0.9V28H74.8z"/>
		<path class="st1" d="M90.3,14.7V28h-1.6V14.7H90.3z"/>
		<path class="st1" d="M96.9,18.7c0.7,0,1.3,0.1,1.8,0.3c0.5,0.2,1,0.5,1.4,0.9c0.4,0.4,0.7,0.9,0.9,1.5c0.2,0.6,0.3,1.2,0.3,1.9
			c0,0.7-0.1,1.4-0.3,1.9c-0.2,0.6-0.5,1.1-0.9,1.5c-0.4,0.4-0.8,0.7-1.4,0.9c-0.5,0.2-1.1,0.3-1.8,0.3s-1.3-0.1-1.8-0.3
			c-0.5-0.2-1-0.5-1.4-0.9c-0.4-0.4-0.7-0.9-0.9-1.5c-0.2-0.6-0.3-1.2-0.3-1.9c0-0.7,0.1-1.4,0.3-1.9c0.2-0.6,0.5-1.1,0.9-1.5
			c0.4-0.4,0.8-0.7,1.4-0.9C95.7,18.8,96.3,18.7,96.9,18.7z M96.9,26.9c0.9,0,1.6-0.3,2-0.9c0.4-0.6,0.7-1.4,0.7-2.5
			c0-1.1-0.2-1.9-0.7-2.5c-0.4-0.6-1.1-0.9-2-0.9c-0.5,0-0.9,0.1-1.2,0.2c-0.3,0.2-0.6,0.4-0.8,0.7s-0.4,0.7-0.5,1.1
			c-0.1,0.4-0.2,0.9-0.2,1.5s0.1,1,0.2,1.4c0.1,0.4,0.3,0.8,0.5,1.1s0.5,0.5,0.8,0.7C96.1,26.8,96.5,26.9,96.9,26.9z"/>
		<path class="st1" d="M102,18.9h1.3c0.1,0,0.2,0,0.3,0.1c0.1,0.1,0.1,0.1,0.2,0.2l2.3,5.9c0.1,0.2,0.1,0.4,0.2,0.6
			c0,0.2,0.1,0.4,0.1,0.6c0-0.2,0.1-0.4,0.2-0.6c0.1-0.2,0.1-0.4,0.2-0.6l2.3-5.9c0-0.1,0.1-0.2,0.2-0.2c0.1-0.1,0.2-0.1,0.3-0.1
			h1.3l-3.7,9.1h-1.4L102,18.9z"/>
		<path class="st1" d="M115.9,18.7c0.5,0,1.1,0.1,1.5,0.3c0.5,0.2,0.9,0.4,1.2,0.8s0.6,0.8,0.8,1.3c0.2,0.5,0.3,1.1,0.3,1.7
			c0,0.3,0,0.4-0.1,0.5c-0.1,0.1-0.2,0.1-0.3,0.1h-6.1c0,0.6,0.1,1.1,0.2,1.5s0.3,0.8,0.6,1.1s0.6,0.5,0.9,0.6
			c0.3,0.1,0.7,0.2,1.2,0.2c0.4,0,0.7,0,1-0.1s0.5-0.2,0.8-0.3c0.2-0.1,0.4-0.2,0.5-0.3c0.1-0.1,0.3-0.1,0.4-0.1
			c0.1,0,0.2,0.1,0.3,0.2l0.4,0.6c-0.2,0.2-0.4,0.4-0.7,0.6s-0.6,0.3-0.9,0.4c-0.3,0.1-0.6,0.2-1,0.3c-0.3,0.1-0.7,0.1-1,0.1
			c-0.6,0-1.2-0.1-1.7-0.3c-0.5-0.2-1-0.5-1.4-0.9c-0.4-0.4-0.7-0.9-0.9-1.5c-0.2-0.6-0.3-1.3-0.3-2.1c0-0.6,0.1-1.2,0.3-1.8
			c0.2-0.6,0.5-1,0.8-1.4c0.4-0.4,0.8-0.7,1.3-1C114.6,18.9,115.2,18.7,115.9,18.7z M115.9,19.9c-0.8,0-1.4,0.2-1.8,0.7
			c-0.4,0.4-0.7,1.1-0.8,1.9h5c0-0.4-0.1-0.7-0.2-1c-0.1-0.3-0.3-0.6-0.4-0.8c-0.2-0.2-0.4-0.4-0.7-0.5
			C116.6,20,116.3,19.9,115.9,19.9z"/>
		<path class="st1" d="M132.1,28h-0.7c-0.2,0-0.3,0-0.4-0.1c-0.1,0-0.2-0.1-0.2-0.3l-0.2-0.8c-0.2,0.2-0.5,0.4-0.7,0.6
			s-0.5,0.3-0.7,0.4c-0.3,0.1-0.5,0.2-0.8,0.3c-0.3,0.1-0.6,0.1-0.9,0.1c-0.4,0-0.7,0-1-0.1c-0.3-0.1-0.6-0.2-0.8-0.4
			c-0.2-0.2-0.4-0.5-0.5-0.8c-0.1-0.3-0.2-0.7-0.2-1.1c0-0.4,0.1-0.7,0.3-1s0.5-0.6,1-0.9s1-0.5,1.7-0.6c0.7-0.2,1.6-0.2,2.6-0.2
			v-0.7c0-0.7-0.2-1.3-0.5-1.6c-0.3-0.4-0.8-0.5-1.3-0.5c-0.4,0-0.7,0-1,0.1c-0.3,0.1-0.5,0.2-0.7,0.3c-0.2,0.1-0.4,0.2-0.5,0.3
			c-0.1,0.1-0.3,0.1-0.4,0.1c-0.1,0-0.2,0-0.3-0.1s-0.1-0.1-0.2-0.2l-0.3-0.5c0.5-0.5,1-0.8,1.6-1.1s1.2-0.4,1.9-0.4
			c0.5,0,1,0.1,1.4,0.3s0.7,0.4,1,0.7s0.5,0.7,0.6,1.1c0.1,0.4,0.2,0.9,0.2,1.4V28z M128,27c0.3,0,0.5,0,0.8-0.1s0.5-0.1,0.7-0.2
			c0.2-0.1,0.4-0.2,0.6-0.4c0.2-0.1,0.4-0.3,0.6-0.5v-1.9c-0.7,0-1.4,0-1.9,0.1c-0.5,0.1-0.9,0.2-1.3,0.4c-0.3,0.2-0.6,0.3-0.7,0.5
			s-0.2,0.4-0.2,0.7c0,0.2,0,0.5,0.1,0.6s0.2,0.3,0.3,0.4c0.1,0.1,0.3,0.2,0.5,0.2C127.5,27,127.7,27,128,27z"/>
		<path class="st1" d="M137.4,28.1c-0.7,0-1.3-0.2-1.7-0.6s-0.6-1-0.6-1.7v-5.6h-1.1c-0.1,0-0.2,0-0.2-0.1c-0.1-0.1-0.1-0.1-0.1-0.3
			v-0.6l1.5-0.2l0.4-2.8c0-0.1,0.1-0.2,0.1-0.2c0.1-0.1,0.1-0.1,0.3-0.1h0.8v3.1h2.6v1.2h-2.6v5.5c0,0.4,0.1,0.7,0.3,0.9
			c0.2,0.2,0.4,0.3,0.7,0.3c0.2,0,0.3,0,0.4-0.1s0.2-0.1,0.3-0.1c0.1-0.1,0.2-0.1,0.2-0.1s0.1-0.1,0.2-0.1c0.1,0,0.2,0.1,0.2,0.2
			l0.5,0.8c-0.3,0.3-0.6,0.5-1,0.6C138.2,28.1,137.8,28.1,137.4,28.1z"/>
	</g>
	<path class="st1" d="M175,13c0.3,0,0.6,0.2,0.7,0.4l3,4.7c0.1,0.2,0.3,0.2,0.4,0l3-4.7c0.2-0.2,0.4-0.4,0.7-0.4h3.8
		c0.2,0,0.3,0.2,0.2,0.4l-5.7,8.8c-0.1,0.2-0.2,0.5-0.2,0.7v4.7c0,0.2-0.2,0.5-0.5,0.5h-3c-0.3,0-0.5-0.2-0.5-0.5v-4.7
		c0-0.2-0.1-0.5-0.2-0.7l-5.7-8.8c-0.1-0.2,0-0.4,0.2-0.4L175,13L175,13z M193.3,22.3c0.2,0,0.3-0.1,0.3-0.3c0,0,0-0.1,0-0.1
		l-1.4-3.7c0-0.1-0.2-0.1-0.3,0l-1.4,3.7c-0.1,0.1,0,0.3,0.2,0.3c0,0,0.1,0,0.1,0H193.3L193.3,22.3z M189.9,13.4
		c0.1-0.2,0.4-0.4,0.6-0.4h2.9c0.3,0,0.6,0.2,0.6,0.4l5.8,14.2c0.1,0.2,0,0.3-0.2,0.4c0,0-0.1,0-0.1,0h-3.3c-0.3,0-0.5-0.2-0.6-0.4
		l-0.5-1.4c-0.1-0.2-0.3-0.4-0.5-0.4h-5.3c-0.2,0-0.4,0.1-0.5,0.4l-0.6,1.4c-0.1,0.3-0.4,0.4-0.6,0.4h-3.3c-0.2,0-0.3-0.1-0.3-0.3
		c0,0,0-0.1,0-0.1L189.9,13.4L189.9,13.4z M205,27.5c0,0.2-0.2,0.5-0.5,0.5h-3c-0.3,0-0.5-0.2-0.5-0.5V13.5c0-0.2,0.2-0.5,0.5-0.5
		h3.1c0.3,0,0.6,0.2,0.7,0.4l4.1,7.8c0.1,0.2,0.3,0.2,0.4,0l4.1-7.8c0.1-0.2,0.4-0.4,0.7-0.4h3.1c0.3,0,0.5,0.2,0.5,0.5v14.1
		c0,0.2-0.2,0.5-0.5,0.5h-3c-0.3,0-0.5-0.2-0.5-0.5v-6.8c0-0.1-0.1-0.1-0.2,0l-2.8,5.5c-0.1,0.2-0.4,0.4-0.7,0.4h-1.7
		c-0.3,0-0.5-0.2-0.7-0.4l-2.8-5.5c0-0.1-0.2-0.1-0.2,0L205,27.5L205,27.5z"/>
	<path class="st1" d="M227.3,22.3c0.2,0,0.3-0.2,0.3-0.4l-1.4-3.7c0-0.1-0.2-0.1-0.3,0l-1.4,3.7c-0.1,0.1,0,0.3,0.2,0.3
		c0,0,0.1,0,0.1,0H227.3L227.3,22.3z M223.9,13.4c0.1-0.2,0.4-0.4,0.6-0.4h2.9c0.3,0,0.5,0.2,0.6,0.4l5.8,14.2
		c0.1,0.2,0,0.3-0.2,0.4c0,0-0.1,0-0.1,0h-3.3c-0.3,0-0.5-0.2-0.6-0.4l-0.6-1.4c-0.1-0.2-0.3-0.4-0.5-0.4h-5.2
		c-0.2,0-0.4,0.1-0.5,0.4l-0.6,1.4c-0.1,0.3-0.4,0.4-0.6,0.4h-3.3c-0.2,0-0.3-0.1-0.3-0.3c0,0,0-0.1,0-0.1L223.9,13.4L223.9,13.4z
		 M242.6,21.3c-0.2,0-0.4-0.1-0.4-0.3v-0.3c0-0.2,0.2-0.3,0.4-0.3h6c0.2,0,0.4,0.1,0.4,0.3v6.8c0,0.2-0.2,0.3-0.4,0.3h-0.3
		c-0.2,0-0.4-0.1-0.4-0.3v-1.4c0-0.1,0-0.3,0-0.4l0,0c0-0.1-0.1-0.1-0.2,0c-1.3,1.6-3.4,2.6-5.7,2.6c-4.5,0-8.1-3.4-8.1-7.5
		c0-4.1,3.6-7.5,8.1-7.5c2.5,0,4.8,1.1,6.2,2.8c0.1,0.1,0.1,0.4-0.1,0.4l-0.4,0.2c-0.2,0.1-0.4,0.1-0.5-0.1
		c-1.3-1.4-3.2-2.3-5.3-2.3c-3.8,0-6.9,2.9-6.9,6.4c0,3.5,3.1,6.4,6.9,6.4c2.4,0,4.4-1.1,5.7-2.9c0.1-0.1,0.1-0.3,0.1-0.5v-2.1
		c0-0.1-0.1-0.3-0.3-0.3C247.6,21.3,242.6,21.3,242.6,21.3z M257.5,14.1h-5.1c-0.1,0-0.3,0.1-0.3,0.3c0,0,0,0,0,0v7
		c0,0.1,0.1,0.3,0.3,0.3c0,0,0,0,0,0h5.1c2.6,0,4-1.8,4-3.8C261.5,15.9,260.1,14.1,257.5,14.1z M251,13.3c0-0.2,0.2-0.3,0.3-0.3h6.2
		c3.2,0,5.1,2.2,5.1,4.8c0,2-1.1,3.8-3.1,4.6c-0.1,0-0.2,0.2-0.1,0.3l3.6,5c0.1,0.1,0,0.3-0.2,0.3h-0.7c-0.2,0-0.4-0.1-0.5-0.3
		l-3.4-4.9c-0.1-0.1-0.2-0.2-0.3-0.2h-5.4c-0.1,0-0.3,0.1-0.3,0.3c0,0,0,0,0,0v4.7c0,0.2-0.2,0.3-0.3,0.3c0,0,0,0,0,0h-0.4
		c-0.2,0-0.3-0.2-0.3-0.3c0,0,0,0,0,0V13.3z M264.2,20.5c0,3.5,3.1,6.4,6.8,6.4c3.7,0,6.8-2.9,6.8-6.4c0-3.5-3.1-6.4-6.8-6.4
		C267.3,14.1,264.2,17,264.2,20.5 M263,20.5c0-4.1,3.6-7.5,8-7.5c4.4,0,8,3.4,8,7.5c0,4.1-3.6,7.5-8,7.5C266.6,28,263,24.6,263,20.5
		 M291.8,13.3c0-0.2,0.2-0.3,0.4-0.3h0.5c0.2,0,0.4,0.2,0.4,0.3v8.8c0,3.3-2.3,5.8-6.5,5.8c-4.2,0-6.5-2.5-6.5-5.8v-8.8
		c0-0.2,0.2-0.3,0.4-0.3h0.5c0.2,0,0.4,0.2,0.4,0.3v8.8c0,2.8,1.9,4.8,5.3,4.8c3.5,0,5.3-2,5.3-4.8L291.8,13.3L291.8,13.3z
		 M299.6,14.1h-4.2c-0.1,0-0.3,0.1-0.3,0.3c0,0,0,0,0,0V22c0,0.1,0.1,0.3,0.3,0.3c0,0,0,0,0,0h4.2c2.7,0,4.3-2,4.3-4.1
		C303.9,16,302.3,14.1,299.6,14.1z M294.3,28c-0.2,0-0.3-0.2-0.3-0.3c0,0,0,0,0,0V13.3c0-0.2,0.1-0.3,0.3-0.3h5.3
		c3.4,0,5.4,2.4,5.4,5.2c0,2.7-1.9,5.2-5.4,5.2h-4.3c-0.1,0-0.3,0.1-0.3,0.3c0,0,0,0,0,0v4.1c0,0.2-0.1,0.3-0.3,0.3
		C294.8,28,294.3,28,294.3,28z M306.6,12.9h-0.4c0,0-0.1,0-0.1,0.1c0,0,0,0,0,0v0.4c0,0.1,0,0.1,0.1,0.1h0.4c0.2,0,0.3-0.1,0.3-0.3
		S306.8,12.9,306.6,12.9z M307.1,14.1C307.1,14.1,307.1,14.2,307.1,14.1L307.1,14.1c-0.1,0.1-0.2,0.1-0.2,0l-0.2-0.4
		c0,0-0.1-0.1-0.1-0.1h-0.3c0,0-0.1,0-0.1,0.1c0,0,0,0,0,0v0.3c0,0.1,0,0.1-0.1,0.1h0c0,0-0.1,0-0.1-0.1c0,0,0,0,0,0v-1.3
		c0-0.1,0-0.1,0.1-0.1h0.6c0.3,0,0.5,0.2,0.5,0.5c0,0.2-0.1,0.3-0.2,0.4c0,0-0.1,0.1,0,0.1L307.1,14.1L307.1,14.1z M305.2,13.5
		c0,0.7,0.6,1.3,1.3,1.3c0.7,0,1.3-0.6,1.3-1.3c0,0,0,0,0,0c0-0.7-0.6-1.3-1.3-1.3c0,0,0,0,0,0C305.8,12.2,305.2,12.8,305.2,13.5z
		 M305,13.5c0-0.8,0.7-1.5,1.5-1.5s1.5,0.7,1.5,1.5s-0.7,1.5-1.5,1.5S305,14.3,305,13.5z"/>
	<g transform="translate(152)">
		<defs>
			<filter id="Adobe_OpacityMaskFilter" filterUnits="userSpaceOnUse" x="0" y="0.6" width="19.2" height="28.4">
				<feColorMatrix  type="matrix" values="1 0 0 0 0  0 1 0 0 0  0 0 1 0 0  0 0 0 1 0"/>
			</filter>
		</defs>
		<mask maskUnits="userSpaceOnUse" x="0" y="0.6" width="19.2" height="28.4" id="b_1_">
			<g class="st2">
				<path id="a_1_" class="st3" d="M0,0.6h19.2V29H0V0.6z"/>
			</g>
		</mask>
		<path class="st4" d="M19.2,5.4c0,0,0-0.1,0-0.1C19,5,18.9,4.7,18.5,4.5C17.6,4,16.8,3.6,16,3.2c-0.2-0.1-0.4-0.2-0.6-0.3
			c0,0-0.2-0.2-0.3-0.5c-0.2-0.3-0.3-0.7-0.4-1.1c0-0.2-0.2-0.7-0.6-0.7c0,0,0,0-0.1,0c-0.1,0-0.1,0-0.2,0.1c-0.4,0.2-0.6,1-0.9,2
			c0,0-0.1,0.3-0.2,0.8l0,0.2l0,0.1c-0.2,0.8-0.3,1.6-0.5,2.3c-0.3,1.5-0.5,3.1-0.7,4.6c-0.1,0.9-0.2,1.8-0.3,2.7
			c0,0.4-0.1,0.7-0.1,1.1l0,0.3c-0.1,0.9-0.3,1.4-0.6,1.7c-0.4,0.3-0.8,0.4-1.4,0.4c-0.1,0-1.5-0.1-2.9-0.1h0c-0.3,0-0.5,0-0.7,0
			l-1.6,0.1C3.4,17,3,17,2.7,17.1c0,0-0.1,0-0.1,0c0,0-0.1,0-0.1,0c-0.1,0-0.2,0-0.2-0.1l0,0c-0.2-0.1-0.4-0.1-0.6-0.1
			c0,0-0.1,0-0.1,0c-0.5,0-0.9,0.3-1.2,0.6c-0.2,0.2-0.3,0.5-0.3,0.8c0,0.2,0.1,0.4,0.1,0.6c0,0,0,0,0,0.1c0,0,0,0.1,0,0.1
			c0,0.1,0.1,0.2,0.1,0.2c0,0.1,0,0.1,0,0.2l-0.1,0.3c0,0.1,0,0.1-0.1,0.2C0,20.7,0,21.4,0,22.1c0,0.2,0,0.5,0.1,0.7
			c0,0.4,0.1,0.8,0.2,1.3c0,0.2,0.1,0.5,0.1,0.7c0.4,1.9,1,3.7,1.1,4C1.5,28.9,1.7,29,2.1,29l0,0h0.1c0.6,0,0.7-0.1,0.7-0.2
			c0.2-0.4,0.3-1.3,0.5-2.1l0.1-0.6c0-0.1,0.1-0.3,0.1-0.4c0,0,0,0,0,0C4.8,25.8,6,26,7.1,26c0.1,0,0.2,0,0.3,0l0,0
			c1.7,0,3.4-0.3,4.2-0.4c0,0,0.1,0,0.1,0l0,0l0,0.1l0.1,0.5c0.3,1.5,0.5,2.1,0.6,2.5l0,0.1c0.1,0.2,0.2,0.2,0.7,0.3c0,0,0,0,0,0
			c0,0,0.1,0,0.1,0c0.6,0,0.6-0.1,0.7-0.2c0.2-0.3,0.7-1.8,1.1-3.7c0.3-1.2,0.6-2.7,0.7-4c0-0.1,0-0.2,0-0.3c0-0.4,0.1-0.8,0.1-1.1
			c0.1-1.2,0.1-2.4,0.1-3.6c0-1.2,0-2.3,0-3.4c0-1.1-0.1-2.1-0.1-2.9l0-1c0-0.3,0-0.5,0-0.7V7.8c0-0.4,0.2-0.6,0.6-0.8
			c0.4-0.2,0.9-0.3,1.5-0.4c0.1,0,0.1,0,0.2,0c0.1,0,0.3,0,0.4-0.1c0.2,0,0.3-0.1,0.4-0.2C19.1,6,19.2,5.7,19.2,5.4"/>
	</g>
</g>
</svg>
