<?xml version="1.0" encoding="utf-8"?>
<!-- Generator: Adobe Illustrator 22.1.0, SVG Export Plug-In . SVG Version: 6.00 Build 0)  -->
<svg version="1.1" id="Layer_1" xmlns="http://www.w3.org/2000/svg" xmlns:xlink="http://www.w3.org/1999/xlink" x="0px" y="0px"
	 viewBox="0 0 42 43.3" style="enable-background:new 0 0 42 43.3;" xml:space="preserve">
<style type="text/css">
	.st0{fill:#FFFFFF;}
</style>
<title>A</title>
<path class="st0" d="M31.7,40.8v-25L15.3,32.1h0.7L30,41.6c0.5,0.3,1.2,0.2,1.5-0.3C31.6,41.2,31.7,41,31.7,40.8z"/>
<path class="st0" d="M39.6,1.2L31.7,9V1.9c0-0.6-0.5-1.1-1.1-1.1c-0.2,0-0.4,0.1-0.6,0.2l-13.9,9.5H7.7c-0.9,0-1.6,0.7-1.7,1.6v18.4
	c0,0.9,0.8,1.6,1.7,1.6h0.9L1,39.7c-0.5,0.5-0.5,1.3,0,1.7c0.5,0.5,1.3,0.5,1.7,0L41.3,2.9c0.5-0.5,0.5-1.3,0-1.7
	C40.8,0.7,40,0.7,39.6,1.2z"/>
</svg>
