<svg xmlns="http://www.w3.org/2000/svg" width="84" height="77" viewBox="0 0 84 77">
    <g fill="none" fill-rule="evenodd">
        <path fill="#000" fill-rule="nonzero" d="M72.947 0H11.053C4.957 0 0 4.934 0 11v39.598c0 6.067 4.957 11 11.053 11H32.82l-1.577 11h-4.714c-1.221 0-2.212.986-2.212 2.201S25.307 77 26.53 77H57.47c1.221 0 2.212-.986 2.212-2.2 0-1.216-.99-2.202-2.212-2.202h-4.714l-1.577-11h21.767c6.096 0 11.053-4.933 11.053-11V11c0-6.062-4.962-11-11.053-11zM35.71 72.598l1.577-11h9.428l1.577 11H35.71zm43.868-22c0 3.641-2.976 6.599-6.63 6.599H11.053c-3.658 0-6.63-2.962-6.63-6.599v-2.2h75.154v2.2zm0-6.598H4.423V11c0-3.64 2.976-6.598 6.63-6.598h61.894c3.658 0 6.63 2.962 6.63 6.598v33z"/>
        <g transform="translate(29 12)">
            <ellipse cx="14.374" cy="12.1" fill="#E7596B" rx="7.351" ry="7.26" style="mix-blend-mode:multiply"/>
            <ellipse cx="4.856" cy="17.781" fill="#64BE64" rx="4.856" ry="4.796" style="mix-blend-mode:multiply"/>
            <ellipse cx="22.382" cy="20.452" fill="#00B3FF" rx="5.618" ry="5.548" style="mix-blend-mode:multiply"/>
            <ellipse cx="20.201" cy="3.807" fill="#FFC800" rx="3.855" ry="3.807" style="mix-blend-mode:multiply"/>
        </g>
    </g>
</svg>
