<svg xmlns="http://www.w3.org/2000/svg" width="27" height="24" viewBox="0 0 27 24">
    <path fill="#FFAE28" fill-rule="evenodd" d="M23.048 2.956A13.708 13.708 0 0 0 17.846 0v3.72a9.676 9.676 0 0 1 2.545 1.655c3.801 3.474 3.801 9.122 0 12.594-3.802 3.467-9.982 3.467-13.789 0-3.798-3.476-3.798-9.12 0-12.594.01-.01.04-.028.054-.044l2.256 2.054L8.899.862 1.76.854l2.243 2.048a.213.213 0 0 1-.051.054c-5.27 4.812-5.27 12.62 0 17.431 5.278 4.817 13.82 4.817 19.095 0 5.266-4.812 5.272-12.619 0-17.43z"/>
</svg>
