<svg xmlns="http://www.w3.org/2000/svg" xmlns:xlink="http://www.w3.org/1999/xlink" width="406" height="118" viewBox="0 0 406 118">
    <defs>
        <path id="b" d="M353.215 97.104l-334.9-10.768-17.5-82.62 389.66 1.048z"/>
        <filter id="a" width="110.3%" height="153.5%" x="-3.2%" y="-13.4%" filterUnits="objectBoundingBox">
            <feOffset dx="15" dy="25" in="SourceAlpha" result="shadowOffsetOuter1"/>
            <feColorMatrix in="shadowOffsetOuter1" values="0 0 0 0 0 0 0 0 0 0 0 0 0 0 0 0 0 0 0.15 0"/>
        </filter>
    </defs>
    <g fill="none" fill-rule="evenodd">
        <g transform="rotate(-1 138.35 49.91)">
            <use fill="#000" filter="url(#a)" xlink:href="#b"/>
            <use fill="#E44870" xlink:href="#b"/>
        </g>
        <path fill="#A33C34" d="M102.428 66.387c-7.168 0-12.798-3.159-13.365-8.95-.04-.567.486-1.134 1.053-1.134h5.468c.931 0 1.134.202 1.62 1.053.567 1.053 2.227 2.025 5.062 2.025 3.038 0 4.01-1.013 4.01-1.944 0-1.337-1.58-2.147-5.387-3.443-5.022-1.66-11.623-4.09-11.623-10.61 0-6.035 5.143-9.801 12.352-9.801 7.371 0 12.515 3.847 12.92 9.517.04.567-.486 1.134-1.053 1.134h-5.63c-.77 0-1.134-.365-1.377-1.094-.486-1.336-2.025-2.551-4.698-2.551-2.754 0-3.847 1.093-3.847 2.146 0 1.256 1.458 1.904 5.224 3.2 4.374 1.539 11.826 4.131 11.826 11.056 0 6.156-5.346 9.396-12.555 9.396zm39.528-20.736V35.162c0-.526.446-.972.972-.972h6.156c.527 0 .972.446.972.972v29.646a.986.986 0 0 1-.972.972h-6.156a.986.986 0 0 1-.972-.972v-9.963a.812.812 0 0 0-.81-.81h-11.259a.812.812 0 0 0-.81.81v9.963a.986.986 0 0 1-.972.972h-6.115a.986.986 0 0 1-.972-.972V35.162c0-.526.445-.972.972-.972h6.115c.527 0 .972.446.972.972v10.49c0 .445.365.81.81.81h11.26c.445 0 .81-.365.81-.81zm13.325 19.238l12.069-29.808c.202-.527.77-.891 1.336-.891h6.075c.567 0 1.134.364 1.337.891l12.028 29.808a.65.65 0 0 1-.607.891h-6.885a1.408 1.408 0 0 1-1.296-.891l-1.134-2.957a1.185 1.185 0 0 0-1.094-.769h-10.813c-.486 0-.932.324-1.094.77l-1.134 2.956a1.408 1.408 0 0 1-1.296.891h-6.885a.65.65 0 0 1-.607-.891zm13.77-11.057h5.305c.405 0 .648-.405.527-.769l-2.876-7.736c-.08-.283-.486-.283-.567 0l-2.916 7.736c-.121.364.122.77.527.77zm24.3 10.976V35.162c0-.526.445-.972.972-.972h14.458c8.1 0 11.826 5.265 11.826 11.542 0 4.172-1.741 8.06-5.508 10.125-.405.203-.486.689-.243 1.053l5.792 8.06c.243.364 0 .81-.405.81h-7.736c-.607 0-1.174-.324-1.539-.81l-4.94-7.007c-.284-.405-.81-.648-1.297-.648h-2.51a.812.812 0 0 0-.81.81v6.683a.986.986 0 0 1-.973.972h-6.115a.986.986 0 0 1-.972-.972zm19.44-18.995c0-2.43-1.215-4.252-4.455-4.252h-6.116a.812.812 0 0 0-.81.81v6.804c0 .445.365.81.81.81h6.116c3.24 0 4.455-1.985 4.455-4.172zm37.3 19.967h-22.315a.986.986 0 0 1-.972-.972V35.162c0-.526.445-.972.972-.972h22.315c.527 0 .972.446.972.972v5.913a.986.986 0 0 1-.972.972h-14.377a.812.812 0 0 0-.81.81v2.916c0 .445.364.81.81.81h11.502c.526 0 .972.445.972.972v5.386a.986.986 0 0 1-.972.972h-11.502a.812.812 0 0 0-.81.81v2.43c0 .446.364.81.81.81h14.377c.527 0 .972.446.972.972v5.873a.986.986 0 0 1-.972.972z"/>
        <path fill="#FFF" d="M97.568 61.527c-7.168 0-12.798-3.159-13.365-8.95-.04-.567.486-1.134 1.053-1.134h5.468c.931 0 1.134.202 1.62 1.053.567 1.053 2.227 2.025 5.062 2.025 3.038 0 4.01-1.013 4.01-1.944 0-1.337-1.58-2.147-5.387-3.443-5.022-1.66-11.623-4.09-11.623-10.61 0-6.035 5.143-9.801 12.352-9.801 7.371 0 12.515 3.847 12.92 9.517.04.567-.486 1.134-1.053 1.134h-5.63c-.77 0-1.134-.365-1.377-1.094-.486-1.336-2.025-2.551-4.698-2.551-2.754 0-3.847 1.093-3.847 2.146 0 1.256 1.458 1.904 5.224 3.2 4.374 1.539 11.826 4.131 11.826 11.056 0 6.156-5.346 9.396-12.555 9.396zm39.528-20.736V30.302c0-.526.446-.972.972-.972h6.156c.527 0 .972.446.972.972v29.646a.986.986 0 0 1-.972.972h-6.156a.986.986 0 0 1-.972-.972v-9.963a.812.812 0 0 0-.81-.81h-11.259a.812.812 0 0 0-.81.81v9.963a.986.986 0 0 1-.972.972h-6.115a.986.986 0 0 1-.972-.972V30.302c0-.526.445-.972.972-.972h6.115c.527 0 .972.446.972.972v10.49c0 .445.365.81.81.81h11.26c.445 0 .81-.365.81-.81zm13.325 19.238l12.069-29.808c.202-.526.77-.891 1.336-.891h6.075c.567 0 1.134.365 1.337.891l12.028 29.808a.65.65 0 0 1-.607.891h-6.885a1.408 1.408 0 0 1-1.296-.891l-1.134-2.957a1.185 1.185 0 0 0-1.094-.769h-10.813c-.486 0-.932.324-1.094.77l-1.134 2.956a1.408 1.408 0 0 1-1.296.891h-6.885a.65.65 0 0 1-.607-.891zm13.77-11.057h5.305c.405 0 .648-.405.527-.769l-2.876-7.736c-.08-.283-.486-.283-.567 0l-2.916 7.736c-.121.364.122.77.527.77zm24.3 10.976V30.302c0-.526.445-.972.972-.972h14.458c8.1 0 11.826 5.265 11.826 11.542 0 4.172-1.741 8.06-5.508 10.125-.405.203-.486.689-.243 1.053l5.792 8.06c.243.364 0 .81-.405.81h-7.736c-.607 0-1.174-.324-1.539-.81l-4.94-7.007c-.284-.405-.81-.648-1.297-.648h-2.51a.812.812 0 0 0-.81.81v6.683a.986.986 0 0 1-.973.972h-6.115a.986.986 0 0 1-.972-.972zm19.44-18.995c0-2.43-1.215-4.252-4.455-4.252h-6.116a.812.812 0 0 0-.81.81v6.804c0 .445.365.81.81.81h6.116c3.24 0 4.455-1.985 4.455-4.172zm37.3 19.967h-22.315a.986.986 0 0 1-.972-.972V30.302c0-.526.445-.972.972-.972h22.315c.527 0 .972.446.972.972v5.913a.986.986 0 0 1-.972.972h-14.377a.812.812 0 0 0-.81.81v2.916c0 .445.364.81.81.81h11.502c.526 0 .972.445.972.972v5.386a.986.986 0 0 1-.972.972h-11.502a.812.812 0 0 0-.81.81v2.43c0 .446.364.81.81.81h14.377c.527 0 .972.446.972.972v5.873a.986.986 0 0 1-.972.972z"/>
        <path fill="#A33C34" d="M323.801 59.526a8.802 8.802 0 0 0-6.402 2.757l-18.823-9.218c.065-.43.11-.87.11-1.322 0-.44-.043-.868-.105-1.29l18.796-9.114a8.809 8.809 0 0 0 6.424 2.78 8.843 8.843 0 0 0 8.843-8.844 8.842 8.842 0 0 0-8.843-8.843 8.842 8.842 0 0 0-8.843 8.843c0 .44.043.867.104 1.29l-18.793 9.114a8.809 8.809 0 0 0-6.425-2.779A8.843 8.843 0 0 0 281 51.743a8.842 8.842 0 0 0 8.843 8.843 8.808 8.808 0 0 0 6.403-2.755l18.821 9.217c-.065.431-.11.87-.11 1.321a8.841 8.841 0 0 0 8.843 8.844 8.841 8.841 0 0 0 8.843-8.844 8.84 8.84 0 0 0-8.842-8.843z"/>
        <path fill="#FFAE28" d="M320.801 55.526a8.802 8.802 0 0 0-6.402 2.757l-18.823-9.218c.065-.43.11-.87.11-1.322 0-.44-.043-.868-.105-1.29l18.796-9.114a8.809 8.809 0 0 0 6.424 2.78 8.843 8.843 0 0 0 8.843-8.844 8.842 8.842 0 0 0-8.843-8.843 8.842 8.842 0 0 0-8.843 8.843c0 .44.043.867.104 1.29l-18.793 9.114a8.809 8.809 0 0 0-6.425-2.779A8.843 8.843 0 0 0 278 47.743a8.842 8.842 0 0 0 8.843 8.843 8.808 8.808 0 0 0 6.403-2.755l18.821 9.217c-.065.431-.11.87-.11 1.321a8.841 8.841 0 0 0 8.843 8.844 8.841 8.841 0 0 0 8.843-8.844 8.84 8.84 0 0 0-8.842-8.843z"/>
    </g>
</svg>
